<?xml version="1.0" encoding="UTF-8"?>
<svg width="1192px" height="281px" viewBox="0 0 1192 281" version="1.1" xmlns="http://www.w3.org/2000/svg" xmlns:xlink="http://www.w3.org/1999/xlink">
    <title>eventozor logo-26</title>
    <defs>
        <linearGradient x1="42.1325561%" y1="-10.999708%" x2="70.0796476%" y2="88.978391%" id="linearGradient-1">
            <stop stop-color="#9C5BDD" offset="0%"></stop>
            <stop stop-color="#A971E2" offset="5.67%"></stop>
            <stop stop-color="#C39CEA" offset="18.43%"></stop>
            <stop stop-color="#D9C0F2" offset="31.37%"></stop>
            <stop stop-color="#EADBF8" offset="44.34%"></stop>
            <stop stop-color="#F5EFFC" offset="57.36%"></stop>
            <stop stop-color="#FDFBFE" offset="70.45%"></stop>
            <stop stop-color="#FFFFFF" offset="83.75%"></stop>
        </linearGradient>
        <linearGradient x1="73.6019785%" y1="29.6170454%" x2="28.5481477%" y2="82.4762239%" id="linearGradient-2">
            <stop stop-color="#FBDC91" offset="0%"></stop>
            <stop stop-color="#FBD78D" offset="15.18%"></stop>
            <stop stop-color="#F9C880" offset="33.46%"></stop>
            <stop stop-color="#F8B06C" offset="53.33%"></stop>
            <stop stop-color="#F58E50" offset="74.35%"></stop>
            <stop stop-color="#F2632B" offset="96.04%"></stop>
            <stop stop-color="#F15A24" offset="100%"></stop>
        </linearGradient>
        <linearGradient x1="-0.00458333333%" y1="49.9996524%" x2="99.9873611%" y2="49.9996524%" id="linearGradient-3">
            <stop stop-color="#5E5AF6" offset="0%"></stop>
            <stop stop-color="#7471F7" offset="5.91%"></stop>
            <stop stop-color="#9E9CF8" offset="18.62%"></stop>
            <stop stop-color="#C1C0FA" offset="31.53%"></stop>
            <stop stop-color="#DCDBFB" offset="44.46%"></stop>
            <stop stop-color="#F0EFFB" offset="57.44%"></stop>
            <stop stop-color="#FBFBFC" offset="70.49%"></stop>
            <stop stop-color="#FFFFFC" offset="83.75%"></stop>
        </linearGradient>
        <linearGradient x1="104.724116%" y1="31.7107693%" x2="20.6991245%" y2="89.9169645%" id="linearGradient-4">
            <stop stop-color="#F15A24" stop-opacity="0.7" offset="0%"></stop>
            <stop stop-color="#F36D3D" stop-opacity="0.7174" offset="4.85%"></stop>
            <stop stop-color="#F69370" stop-opacity="0.7568" offset="15.85%"></stop>
            <stop stop-color="#F9B49C" stop-opacity="0.797" offset="27.07%"></stop>
            <stop stop-color="#FBCFC0" stop-opacity="0.8372" offset="38.31%"></stop>
            <stop stop-color="#FDE4DB" stop-opacity="0.8775" offset="49.56%"></stop>
            <stop stop-color="#FEF3EF" stop-opacity="0.918" offset="60.86%"></stop>
            <stop stop-color="#FFFCFB" stop-opacity="0.9587" offset="72.22%"></stop>
            <stop stop-color="#FFFFFF" offset="83.75%"></stop>
        </linearGradient>
        <linearGradient x1="38.8113333%" y1="7.09949751%" x2="69.8071649%" y2="87.6607589%" id="linearGradient-5">
            <stop stop-color="#EDA0F9" offset="0%"></stop>
            <stop stop-color="#E99EF9" offset="15.92%"></stop>
            <stop stop-color="#DC98F9" offset="32.78%"></stop>
            <stop stop-color="#C78DF8" offset="50.06%"></stop>
            <stop stop-color="#A97FF8" offset="67.65%"></stop>
            <stop stop-color="#836CF7" offset="85.28%"></stop>
            <stop stop-color="#5E5AF6" offset="100%"></stop>
        </linearGradient>
        <linearGradient x1="29.9036938%" y1="89.0068643%" x2="57.8690751%" y2="-10.9887542%" id="linearGradient-6">
            <stop stop-color="#0073E9" offset="0%"></stop>
            <stop stop-color="#0174E9" offset="0.215422%"></stop>
            <stop stop-color="#3C94EE" offset="10.38%"></stop>
            <stop stop-color="#70B0F3" offset="20.75%"></stop>
            <stop stop-color="#9CC9F6" offset="31.16%"></stop>
            <stop stop-color="#C0DCFA" offset="41.59%"></stop>
            <stop stop-color="#DBEBFC" offset="52.03%"></stop>
            <stop stop-color="#EFF6FE" offset="62.51%"></stop>
            <stop stop-color="#FBFDFF" offset="73.05%"></stop>
            <stop stop-color="#FFFFFF" offset="83.75%"></stop>
        </linearGradient>
        <linearGradient x1="79.3220396%" y1="89.8926977%" x2="-4.69884784%" y2="31.7256731%" id="linearGradient-7">
            <stop stop-color="#2D9EAD" offset="0%"></stop>
            <stop stop-color="#3DA5B3" offset="3.21%"></stop>
            <stop stop-color="#70BDC7" offset="14.44%"></stop>
            <stop stop-color="#9CD1D8" offset="25.9%"></stop>
            <stop stop-color="#C0E2E6" offset="37.36%"></stop>
            <stop stop-color="#DBEFF1" offset="48.85%"></stop>
            <stop stop-color="#EFF8F9" offset="60.38%"></stop>
            <stop stop-color="#FBFDFD" offset="71.98%"></stop>
            <stop stop-color="#FFFFFF" offset="83.75%"></stop>
        </linearGradient>
        <linearGradient x1="45.3437042%" y1="88.5672515%" x2="60.3720454%" y2="0.924140569%" id="linearGradient-8">
            <stop stop-color="#6CCFF8" offset="0%"></stop>
            <stop stop-color="#69CCF8" offset="20.89%"></stop>
            <stop stop-color="#61C2F8" offset="37.99%"></stop>
            <stop stop-color="#53B0F8" offset="53.76%"></stop>
            <stop stop-color="#4098F9" offset="68.71%"></stop>
            <stop stop-color="#2679F9" offset="83.1%"></stop>
            <stop stop-color="#0854FA" offset="96.88%"></stop>
            <stop stop-color="#004AFA" offset="100%"></stop>
        </linearGradient>
        <linearGradient x1="79.2849842%" y1="60.6683997%" x2="8.54141201%" y2="36.3503852%" id="linearGradient-9">
            <stop stop-color="#C3F6A5" offset="0%"></stop>
            <stop stop-color="#BFF5A5" offset="9.59%"></stop>
            <stop stop-color="#B2F1A5" offset="19.73%"></stop>
            <stop stop-color="#9DEBA6" offset="30.13%"></stop>
            <stop stop-color="#7FE3A6" offset="40.64%"></stop>
            <stop stop-color="#5ED9A7" offset="50.18%"></stop>
            <stop stop-color="#56CDA8" offset="59.48%"></stop>
            <stop stop-color="#42ACAA" offset="76.45%"></stop>
            <stop stop-color="#2177AD" offset="99.02%"></stop>
            <stop stop-color="#1F75AD" offset="100%"></stop>
        </linearGradient>
        <linearGradient x1="0%" y1="49.9984545%" x2="100.008664%" y2="49.9984545%" id="linearGradient-10">
            <stop stop-color="#80A7F8" offset="0%"></stop>
            <stop stop-color="#7FA2F7" offset="14.3%"></stop>
            <stop stop-color="#7D93F6" offset="31.53%"></stop>
            <stop stop-color="#797BF3" offset="50.26%"></stop>
            <stop stop-color="#7359F0" offset="70.06%"></stop>
            <stop stop-color="#6C2EEB" offset="90.5%"></stop>
            <stop stop-color="#6817E9" offset="100%"></stop>
        </linearGradient>
    </defs>
    <g id="Page-1" stroke="none" stroke-width="1" fill="none" fill-rule="evenodd">
        <g id="eventozor-logo-26" transform="translate(-0, 0)">
            <g id="Group" transform="translate(352.28, 75.41)" fill="#000000" fill-rule="nonzero">
                <path d="M0,130.31 L0,5.45 C0,0.94 1.13,0 5.27,0 L82.18,0 C86.69,0 87.63,1.13 87.63,5.27 L87.63,15.61 C87.63,19.75 86.69,21.06 82.18,21.06 L27.08,21.06 L27.08,56.22 L72.21,56.22 C76.72,56.22 77.66,57.35 77.66,61.49 L77.66,71.83 C77.66,75.97 76.72,77.1 72.21,77.1 L27.08,77.1 L27.08,114.71 L83.87,114.71 C88.38,114.71 89.32,116.03 89.32,120.16 L89.32,130.5 C89.32,134.64 88.38,135.77 83.87,135.77 L5.27,135.77 C1.13,135.77 0,134.82 0,130.31 Z" id="Path"></path>
                <path d="M157.95,41.56 C159.45,36.11 160.02,35.73 164.91,35.73 L181.08,35.73 C185.22,35.73 186.35,37.05 184.84,41.37 L152.12,133.13 C151.37,135.2 150.8,135.76 148.74,135.76 L124.67,135.76 C122.6,135.76 121.85,135.2 121.1,133.13 L88.38,41.37 C86.88,37.05 88,35.73 92.14,35.73 L108.31,35.73 C113.2,35.73 113.76,36.11 115.27,41.56 L136.71,110.38 L157.95,41.56 Z" id="Path"></path>
                <path d="M276.5,68.45 C276.5,94.4 253.75,99.29 237.01,99.29 C228.17,99.29 220.46,98.16 212.75,95.72 C215.2,109.26 224.03,115.09 241.71,115.09 C250.74,115.09 260.33,113.4 267.66,110.95 C270.86,109.82 272.93,108.88 274.43,108.88 C275.75,108.88 276.5,109.44 276.5,111.7 L276.5,125.43 C276.5,128.44 275.56,129.57 272.55,131.07 C269.35,132.57 257.51,137.09 240.21,137.09 C203.36,137.09 187.37,116.78 187.37,86.13 C187.37,54.16 204.67,33.4799954 235.32,33.4799954 C265.03,33.47 276.5,49.64 276.5,68.45 Z M212.94,76.72 C220.09,78.6 227.61,79.54 234,79.54 C245.28,79.54 252.43,76.16 252.43,67.32 C252.43,58.48 245.47,53.78 235.32,53.78 C224.22,53.78 215.39,61.11 212.94,76.72 Z" id="Shape"></path>
                <path d="M317.86,94.4 L317.86,130.32 C317.86,134.83 316.54,135.77 312.6,135.77 L297.56,135.77 C293.42,135.77 292.29,134.83 292.29,130.32 L292.29,41.19 C292.29,36.87 293.42,35.74 297.56,35.74 L312.6,35.74 C316.55,35.74 317.86,36.87 317.86,41.19 L317.86,48.9 C323.69,38.18 336.29,33.48 350.02,33.48 C368.07,33.48 380.86,41.75 380.86,68.27 L380.86,130.32 C380.86,134.83 379.92,135.77 375.78,135.77 L360.74,135.77 C356.6,135.77 355.47,134.83 355.47,130.32 L355.47,73.16 C355.47,63.19 351.71,56.05 340.99,56.05 C325.95,56.04 317.86,69.95 317.86,94.4 Z" id="Path"></path>
                <path d="M405.26,35.73 L416.35,9.59 C417.67,6.96 420.3,6.58 424.44,6.58 C430.08,6.58 430.27,6.96 430.27,9.59 L430.27,35.73 L451.52,35.73 C455.47,35.73 456.6,35.92 456.6,39.3 L456.6,53.03 C456.6,55.85 455.28,57.17 451.71,57.17 L430.27,57.17 L430.27,95.15 C430.27,113.39 434.59,116.02 444.75,116.02 C450.58,116.02 453.96,115.27 456.03,114.52 C458.1,113.77 459.04,113.96 459.04,117.34 L459.04,129.37 C459.04,132 458.48,133.32 455.66,134.45 C450.58,136.52 442.12,136.89 437.23,136.89 C419.93,136.89 404.7,130.68 404.7,103.23 L404.7,57.16 L395.86,57.16 C391.53,57.16 390.41,56.78 390.41,52.84 L390.41,40.99 C390.41,37.23 391.35,35.72 394.36,35.72 L405.26,35.72 L405.26,35.73 Z" id="Path"></path>
                <path d="M514.09,33.47 C550.01,33.47 564.3,57.54 564.3,85.74 C564.3,113.76 550.01,138.2 514.09,138.2 C478.36,138.2 464.07,113.76 464.07,85.74 C464.07,57.54 478.36,33.47 514.09,33.47 Z M491.15,85.94 C491.15,104.74 498.48,115.27 514.09,115.27 C530.07,115.27 537.22,104.74 537.22,85.94 C537.22,67.14 530.07,56.419993 514.09,56.419993 C498.48,56.41 491.15,67.13 491.15,85.94 Z" id="Shape"></path>
                <path d="M646.39,35.73 C649.02,35.73 649.4,37.42 649.4,39.49 L649.4,48.14 C649.4,52.09 648.46,53.41 642.82,60.36 L600.7,114.7 L648.46,114.7 C650.91,114.7 651.66,115.83 651.66,118.27 L651.66,132.94 C651.66,135.01 650.72,135.76 648.09,135.76 L572.87,135.76 C570.43,135.76 569.67,134.63 569.67,132 L569.67,122.97 C569.67,119.02 570.8,116.76 573.43,113.38 L616.87,56.78 L574.94,56.78 C573.06,56.78 571.18,55.65 571.18,53.21 L571.18,38.54 C571.18,36.47 572.5,35.72 574.94,35.72 L646.39,35.72 L646.39,35.73 Z" id="Path"></path>
                <path d="M707.57,33.47 C743.49,33.47 757.78,57.54 757.78,85.74 C757.78,113.76 743.49,138.2 707.57,138.2 C671.84,138.2 657.55,113.76 657.55,85.74 C657.55,57.54 671.84,33.47 707.57,33.47 Z M684.63,85.94 C684.63,104.74 691.96,115.27 707.57,115.27 C723.55,115.27 730.7,104.74 730.7,85.94 C730.7,67.14 723.55,56.419993 707.57,56.419993 C691.96,56.41 684.63,67.13 684.63,85.94 Z" id="Shape"></path>
                <path d="M776.97,35.73 L792.01,35.73 C795.96,35.73 797.27,36.67 797.27,41.18 L797.27,59.42 C799.72,50.58 807.24,33.47 827.36,33.47 C830.93,33.47 834.13,34.03 836.2,34.97 C839.21,35.91 839.21,37.79 839.21,40.05 L839.21,55.09 C839.21,58.1 838.27,58.1 835.83,57.53 C833.01,56.78 830.19,56.59 827.93,56.59 C805.74,56.59 797.47,81.6 797.28,97.96 L797.28,130.3 C797.28,134.81 795.96,135.75 792.02,135.75 L776.98,135.75 C772.84,135.75 771.709934,134.81 771.709934,130.3 L771.709934,41.17 C771.7,36.67 772.83,35.73 776.97,35.73 Z" id="Path"></path>
            </g>
            <g id="XMLID_00000147195196460033969770000009224328699431865530_" transform="translate(140.5, 140.38) rotate(-180) translate(-140.5, -140.38)translate(-0, 0)">
                <circle id="Oval" fill="#FFFFFF" cx="141" cy="140" r="140"></circle>
                <g id="Group" fill-rule="nonzero">
                    <path d="M207.52,90.81 L176.37,90.81 L176.4,90.91 L189.03,129.8 L194.95,148.02 L198.61,159.3 L205.84,154.04 L218.81,144.56 L225.32,139.81 C227.72,137.83 229.66,135.6 231.17,133.21 C242.02,116.04 230.53,90.81 207.52,90.81 Z" id="Path" fill="url(#linearGradient-1)" opacity="0.5"></path>
                    <path d="M275.65,103.03 C275.1,101.02 274.5,99.02 273.85,97.01 C269.2,82.72 262.49,69.69 254.12,58.13 L254.11,58.14 C259.87,66.23 263.25,76.13 263.25,86.82 C263.25,100.5 257.7,112.89 248.74,121.85 C246.33,124.26 243.66,126.43 240.78,128.31 L240.81,128.36 C240.1,128.92 239.38,129.47 238.64,129.99 L238.67,130.04 L225.32,139.8 C224.83,140.21 224.33,140.6 223.8,140.98 L218.87,144.56 L205.84,154.03 L198.63,159.3 L198.61,159.39 L208.23,189.01 C215.38,211.04 194.64,229.86 174.86,224.51 C171.85,223.7 168.87,222.33 166.01,220.33 L184.06,233.49 L184.14,233.55 L185.25,234.36 C193.32,240.06 203.16,243.4 213.79,243.4 C227.48,243.4 239.86,237.85 248.82,228.89 C250.19,227.52 251.49,226.07 252.69,224.54 C252.75,224.45 252.81,224.37 252.87,224.3 C253.58,223.34 254.27,222.38 254.96,221.42 C271.49,197.99 280.740045,169.72 280.740045,140.42 C280.75,128.03 279.11,115.48 275.65,103.03 Z" id="Path" fill="url(#linearGradient-2)"></path>
                    <path d="M168.47,66.6 L166.75,61.3 C165.62,57.81 163.96,54.8 161.93,52.26 C149.09,36.23 121.18,39.25 114.01,61.3 L104.38,90.92 L145.47,90.92 L164.34,90.92 L176.38,90.92 L168.47,66.6 Z" id="Path" fill="url(#linearGradient-3)" opacity="0.5"></path>
                    <path d="M208.24,189.01 L198.62,159.39 L165.31,183.59 L150.14,194.61 L140.43,201.66 L160.96,216.63 L166.02,220.32 C168.88,222.33 171.86,223.7 174.87,224.5 C194.65,229.86 215.4,211.04 208.24,189.01 Z" id="Path" fill="url(#linearGradient-4)" opacity="0.5"></path>
                    <path d="M263.26,86.82 C263.26,76.13 259.88,66.23 254.12,58.14 L254.13,58.13 C229.14,23.54 189.51,2.2 147.1,0.16 C144.88,0.05 142.65,0 140.41,0 C126.28,0 111.91,2.16 97.73,6.68 C102.37,5.24 107.3,4.46 112.41,4.46 C126.1,4.46 138.48,10.01 147.44,18.97 C152.76,24.29 156.88,30.82 159.35,38.11 L159.36,38.11 L168.52,66.46 C168.5,66.5 168.48,66.54 168.47,66.59 L176.37,90.91 L176.4,90.9 L176.37,90.8 L207.52,90.8 C230.53,90.8 242.03,116.03 231.18,133.19 C229.67,135.58 227.73,137.81 225.33,139.79 L238.68,130.03 L238.65,129.98 L240.82,128.35 L240.79,128.3 C243.67,126.42 246.33,124.25 248.75,121.84 C257.71,112.89 263.26,100.5 263.26,86.82 Z" id="Path" fill="url(#linearGradient-5)"></path>
                    <path d="M79.36,90.92 L73.24,90.92 C69.62,90.92 66.28,91.54 63.27,92.66 C43.96,99.85 38.14,127.42 56.94,141.08 L82.14,159.38 L83.43,155.42 L94.87,120.19 L100.73,102.16 L104.39,90.91 L79.36,90.91 L79.36,90.92 Z" id="Path" fill="url(#linearGradient-6)" opacity="0.5"></path>
                    <path d="M107.08,177.52 L91.71,166.35 L82.14,159.4 L74.48,183.13 L71.94,190.97 C71.2,193.89 70.94,196.73 71.11,199.46 C72.29,219.81 96.5,233.59 115.18,220.02 L140.37,201.71 L107.08,177.52 Z" id="Path" fill="url(#linearGradient-7)" opacity="0.5"></path>
                    <path d="M62.91,226.77 C62.91,221.79 63.64,216.98 65.02,212.45 C65.2,211.81 65.41,211.19 65.62,210.56 L71.95,190.96 C72.11,190.31 72.3,189.66 72.51,189.01 L74.41,183.16 L82.13,159.38 L56.93,141.08 C38.13,127.42 43.96,99.85 63.26,92.66 C66.27,91.54 69.61,90.92 73.23,90.92 L79.35,90.92 C79.3,90.88 79.25,90.83 79.2,90.78 L49.56,90.73 L49.56,90.74 C35.88,90.74 23.49,96.29 14.53,105.25 C5.56,114.22 0.02,126.6 0.02,140.28 C0.02,140.3 0.02,140.32 0.02,140.34 L0,140.34 C0,154.71 2.22,169.33 6.9,183.74 C15.73,210.91 32.06,233.54 52.85,250.09 C65.91,260.49 80.73,268.5 96.56,273.7 C76.99,267.1 62.91,248.58 62.91,226.77 Z" id="Path" fill="url(#linearGradient-8)"></path>
                    <path d="M248.83,228.88 C239.86,237.85 227.48,243.39 213.8,243.39 C203.17,243.39 193.33,240.05 185.26,234.35 C184.89,234.09 184.51,233.82 184.15,233.54 L184.07,233.48 L166.02,220.32 C165.87,220.22 165.72,220.12 165.57,220.01 L160.97,216.67 L140.37,201.7 L115.18,220.01 C96.5,233.57 72.29,219.8 71.11,199.45 C70.95,196.72 71.21,193.88 71.94,190.96 L65.61,210.56 L65.01,212.45 C63.63,216.98 62.9,221.79 62.9,226.77 C62.9,248.57 76.99,267.09 96.56,273.71 C110.54,278.32 125.31,280.76 140.35,280.76 C154.72,280.76 169.33,278.54 183.74,273.86 C195.9,269.91 207.16,264.45 217.36,257.76 C231.17,248.72 243.07,237.41 252.7,224.54 C251.5,226.06 250.2,227.51 248.83,228.88 Z" id="Path" fill="url(#linearGradient-9)"></path>
                    <path d="M159.36,38.12 L159.36,38.12 C156.88,30.83 152.77,24.3 147.44,18.98 C138.47,10.01 126.09,4.47 112.41,4.47 C107.3,4.47 102.37,5.24 97.73,6.69 L97,6.92 C96.99,6.92 96.99,6.92 96.99,6.93 C96.69,7.02 96.39,7.13 96.09,7.23 C54.46,21.04 23.59,52.55 9.13,90.68 C3.17,106.37 0,123.19 0,140.35 L0.02,140.35 C0.02,140.33 0.02,140.31 0.02,140.29 C0.02,126.6 5.57,114.22 14.53,105.26 C23.5,96.29 35.89,90.75 49.56,90.75 L49.56,90.74 L79.2,90.79 C79.25,90.84 79.3,90.89 79.35,90.93 L104.37,90.93 L114,61.31 C121.17,39.26 149.08,36.24 161.92,52.27 C163.95,54.81 165.61,57.82 166.74,61.31 L168.46,66.61 C168.47,66.56 168.49,66.52 168.51,66.48 L159.36,38.12 Z" id="Path" fill="url(#linearGradient-10)"></path>
                </g>
            </g>
        </g>
    </g>
</svg>