<svg width="99" height="83" xmlns="http://www.w3.org/2000/svg"><g fill="#FF5F56" fill-rule="evenodd"><path d="M44.722 41.273c0 10.19.007 20.379-.013 30.568-.002.717-.065 1.492-.335 2.137-.527 1.263-2 1.99-3.242 1.774-1.397-.243-2.649-1.506-2.85-2.933-.066-.482-.024-.98-.024-1.471-.001-20.195-.01-40.39.019-60.584 0-.883.178-1.84.542-2.63.594-1.292 2.212-1.923 3.496-1.583 1.427.377 2.364 1.494 2.392 3.05.046 2.576.012 5.155.012 7.733v23.94h.003zm5.897-.125c-.001-10.494.015-20.99-.008-31.484-.01-4.813-3.992-8.83-8.662-8.959-4.447-.124-9.176 3.638-9.165 9.632.04 20.56-.005 41.12.044 61.68.004 1.436.257 2.985.826 4.282 1.854 4.233 5.682 6.025 9.992 5.175 4.138-.817 7.043-5.066 7.006-9.025-.024-2.608-.038-5.216-.046-7.825-.023-7.824.013-15.65.013-23.476zM13.657 67.385l-.368-.01-5.184-32.537H0v47.593h5.664V51.523l.338-.018L11.209 82.5h4.581l4.65-31.006.398.035v30.932h5.553V34.798h-7.746l-4.988 32.587M67.67 51.178h-6.868V34.8c-1.295 0-2.424-.009-3.553.004-.586.007-1.172.054-1.843.087v46.933h5.479v-24.64h6.896v24.659h5.492v-46.95H67.67v16.284zM92.272 73.181c-.023 2.442-2.205 3.968-4.334 3.092-1.199-.493-1.904-1.462-2.086-2.788-.074-.546-.04-1.11-.04-1.667-.004-8.965-.01-17.93.003-26.896 0-.67.028-1.374.223-2.002.523-1.681 1.924-2.518 3.625-2.282 1.478.206 2.598 1.517 2.609 3.236.031 4.884.011 9.769.011 14.654.002 4.885.034 9.77-.011 14.653m5.89-3.55c-.012-3.664.013-7.329.014-10.993 0-4.886-.025-9.772.007-14.657.037-5.78-5.527-11.051-12.18-8.54-3.54 1.334-5.653 4.786-5.666 9.031-.027 9.462-.012 18.925.004 28.387.001.672.13 1.348.238 2.015.801 4.93 4.86 8.114 9.827 7.564 4.427-.491 7.836-4.68 7.783-9.143a442.95 442.95 0 01-.027-3.664"/></g></svg>