<?xml version="1.0" encoding="UTF-8" standalone="no"?><!DOCTYPE svg PUBLIC "-//W3C//DTD SVG 1.1//EN" "http://www.w3.org/Graphics/SVG/1.1/DTD/svg11.dtd"><svg width="100%" height="100%" viewBox="0 0 250 132" version="1.1" xmlns="http://www.w3.org/2000/svg" xmlns:xlink="http://www.w3.org/1999/xlink" xml:space="preserve" xmlns:serif="http://www.serif.com/" style="fill-rule:evenodd;clip-rule:evenodd;stroke-linejoin:round;stroke-miterlimit:2;"><g id="layer1"><path id="path50" d="M164.72,86.75c-8.234,0 -14.934,6.7 -14.934,14.934c0,8.235 6.698,14.934 14.933,14.934c2.072,0 4.168,-0.443 6.063,-1.285l0.701,-0.309c1.202,-0.533 2.611,-0.051 3.234,1.104l2.111,3.914l-1.72,0.927c-3.175,1.715 -6.767,2.619 -10.387,2.619c-12.079,0 -21.904,-9.825 -21.904,-21.904c0,-12.076 9.826,-21.904 21.904,-21.904c3.62,0 7.212,0.906 10.388,2.621l1.718,0.927l-2.119,3.929c-0.646,1.197 -2.122,1.663 -3.339,1.056c-2.086,-1.04 -4.391,-1.563 -6.648,-1.563" style="fill:#fff;fill-rule:nonzero;"/><path id="path52" d="M137.482,116.687c1.389,0 2.517,1.125 2.517,2.516l0,4.385l-25.089,0c-1.389,0 -2.516,-1.128 -2.516,-2.518l0,-4.383l25.088,0Zm0.602,-13.713c0,1.39 -1.128,2.518 -2.517,2.518l-23.174,0l0,-4.385c0,-1.391 1.127,-2.516 2.517,-2.516l23.174,0l0,4.382Zm-25.691,-18.887c0,-1.391 1.127,-2.518 2.517,-2.518l25.088,0l0,4.385c0,1.388 -1.126,2.516 -2.517,2.516l-25.088,0l0,-4.383Z" style="fill:#fff;fill-rule:nonzero;"/><path id="path54" d="M91.792,99.222c0,-1.388 1.127,-2.516 2.517,-2.516l4.429,0l0,24.363c0,1.391 -1.128,2.518 -2.517,2.518l-4.429,0l0,-24.366Zm17.087,-13.152c0,1.391 -1.127,2.516 -2.517,2.516l-24.711,0l0,-4.429c0,-1.391 1.127,-2.518 2.516,-2.518l24.712,0l0,4.431Z" style="fill:#fff;fill-rule:nonzero;"/><path id="path56" d="M211.443,48.613l0,24.803l-10.055,0l0,-25.243c0,-4.27 -3.569,-7.723 -7.98,-7.723l-4.021,0c-4.413,0 -8.044,3.454 -8.044,7.723l0,25.243l-9.989,0l0,-24.803c0,-9.858 8.303,-17.896 18.485,-17.896l3.115,0c10.186,0 18.489,8.038 18.489,17.896" style="fill:#fff;fill-rule:nonzero;"/><path id="path58" d="M135.183,47.706c1.653,-4.249 5.629,-7.256 10.209,-7.256c4.622,0 8.538,3.015 10.18,7.256l-20.388,0Zm10.209,-16.989c-11.612,0 -21.018,9.545 -21.018,21.35c0,11.805 9.405,21.349 21.018,21.349c0.127,0 0.25,0.002 0.377,0l0,-0l20.074,0l0,-9.685l-20.074,0l0,-0.01c-0.127,0.004 -0.249,0.004 -0.377,0.004c-4.864,0 -9.05,-3.369 -10.49,-8.072l31.328,0c1.047,-7.837 -1.38,-24.936 -20.838,-24.936" style="fill:#fff;fill-rule:nonzero;"/><path id="path60" d="M109.886,55.871c-1.492,4.579 -5.549,7.875 -10.381,7.875c-6.032,0 -11.029,-5.212 -11.029,-11.679c0,-6.337 4.894,-11.487 10.84,-11.597l10.589,0l0,15.401l-0.018,0Zm10.073,-25.153l0,-0.001l-21.586,0l0,0.059c-11.083,0.599 -19.887,9.875 -19.887,21.292c0,11.804 9.405,21.349 21.018,21.349c3.86,0 7.391,-1.051 10.4,-2.877l0,2.877l10.056,0l0,-42.699l-0.001,-0Z" style="fill:#fff;fill-rule:nonzero;"/><path id="path62" d="M67.634,116.38c-0.043,9.611 -14.656,9.61 -14.698,-0c0.043,-9.611 14.656,-9.61 14.698,0" style="fill:#fff;fill-rule:nonzero;"/><path id="path64" d="M204.422,84.154c0,-1.391 1.125,-2.518 2.515,-2.518l4.505,0l0,41.952l-4.505,0c-1.391,0 -2.515,-1.125 -2.515,-2.515l0,-15.46l-9.021,0c-1.389,0 -2.515,-1.125 -2.515,-2.515l0,-4.506l11.537,0l0,-14.438Zm-15.813,36.919c0,1.39 -1.126,2.515 -2.517,2.515l-4.505,0l0,-41.952l4.505,0c1.39,0 2.517,1.127 2.517,2.518l0,36.919Z" style="fill:#fff;fill-rule:nonzero;"/><path id="path66" d="M58.784,63.747c-12.132,0 -22.056,-10.424 -22.056,-23.296c0,-12.873 9.925,-23.297 22.056,-23.297c6.748,0 12.819,3.228 16.857,8.271l7.004,-7.004c-5.87,-6.701 -14.368,-10.937 -23.861,-10.937c-17.71,0 -32.048,14.757 -32.048,32.967c0,18.211 14.338,32.967 32.048,32.967c7.536,0 14.446,-2.672 19.912,-7.132c-2.223,-2.528 -3.862,-5.597 -4.702,-8.992c-3.957,3.992 -9.324,6.453 -15.211,6.453" style="fill:#fff;fill-rule:nonzero;"/></g></svg>