<?xml version="1.0" encoding="UTF-8" standalone="no"?><!DOCTYPE svg PUBLIC "-//W3C//DTD SVG 1.1//EN" "http://www.w3.org/Graphics/SVG/1.1/DTD/svg11.dtd"><svg width="100%" height="100%" viewBox="0 0 180 134" version="1.1" xmlns="http://www.w3.org/2000/svg" xmlns:xlink="http://www.w3.org/1999/xlink" xml:space="preserve" xmlns:serif="http://www.serif.com/" style="fill-rule:evenodd;clip-rule:evenodd;stroke-linejoin:round;stroke-miterlimit:2;"><rect id="Artboard1" x="0" y="0" width="180" height="134" style="fill:none;"/><g id="layer1"><path id="path48" d="M122.613,5.019c1.443,-1.513 3.447,-2.368 5.544,-2.368l26.368,0l-117.877,125.331c-1.45,1.553 -3.482,2.439 -5.607,2.439l-26.008,0l117.579,-125.401Z" style="fill:#fd0;fill-rule:nonzero;"/><path id="path50" d="M134.867,87.266c-6.531,0 -11.845,5.314 -11.845,11.845c0,6.531 5.313,11.845 11.843,11.845c1.643,0 3.305,-0.351 4.808,-1.019l0.556,-0.245c0.953,-0.423 2.071,-0.041 2.565,0.876l1.674,3.104l-1.364,0.735c-2.518,1.36 -5.367,2.077 -8.238,2.077c-9.58,0 -17.373,-7.793 -17.373,-17.373c0,-9.578 7.793,-17.373 17.373,-17.373c2.871,0 5.72,0.719 8.239,2.079l1.363,0.735l-1.681,3.116c-0.513,0.949 -1.683,1.319 -2.649,0.837c-1.654,-0.825 -3.483,-1.24 -5.273,-1.24" style="fill:#fff;fill-rule:nonzero;"/><path id="path52" d="M113.264,111.01c1.102,0 1.996,0.893 1.996,1.995l0,3.478l-19.899,0c-1.102,0 -1.995,-0.894 -1.995,-1.997l0,-3.476l19.898,0Zm0.477,-10.877c0,1.103 -0.895,1.997 -1.996,1.997l-18.38,0l0,-3.478c0,-1.103 0.894,-1.995 1.996,-1.995l18.38,0l0,3.476Zm-20.376,-14.98c0,-1.103 0.894,-1.997 1.996,-1.997l19.898,0l0,3.478c0,1.101 -0.893,1.995 -1.996,1.995l-19.898,0l0,-3.476Z" style="fill:#fff;fill-rule:nonzero;"/><path id="path54" d="M77.026,97.158c0,-1.101 0.894,-1.995 1.996,-1.995l3.513,0l0,19.323c0,1.103 -0.894,1.997 -1.996,1.997l-3.513,0l0,-19.325Zm13.552,-10.432c0,1.103 -0.894,1.995 -1.996,1.995l-19.599,0l0,-3.513c0,-1.103 0.894,-1.997 1.995,-1.997l19.6,0l0,3.514Z" style="fill:#fff;fill-rule:nonzero;"/><path id="path56" d="M171.924,57.019l0,19.672l-7.975,0l0,-20.021c0,-3.386 -2.831,-6.126 -6.329,-6.126l-3.189,0c-3.5,0 -6.38,2.739 -6.38,6.126l0,20.021l-7.923,0l0,-19.672c0,-7.819 6.585,-14.194 14.661,-14.194l2.47,0c8.079,0 14.665,6.375 14.665,14.194" style="fill:#fff;fill-rule:nonzero;"/><path id="path58" d="M111.44,56.299c1.311,-3.37 4.465,-5.755 8.097,-5.755c3.666,0 6.772,2.391 8.074,5.755l-16.171,0Zm8.097,-13.475c-9.21,0 -16.67,7.57 -16.67,16.933c0,9.363 7.459,16.933 16.67,16.933c0.1,0 0.198,0.002 0.299,0l0,-0l15.922,0l0,-7.682l-15.922,0l0,-0.008c-0.1,0.003 -0.197,0.003 -0.299,0.003c-3.858,0 -7.177,-2.672 -8.32,-6.402l24.847,0c0.831,-6.215 -1.095,-19.778 -16.527,-19.778" style="fill:#fff;fill-rule:nonzero;"/><path id="path60" d="M91.377,62.774c-1.184,3.632 -4.401,6.246 -8.234,6.246c-4.784,0 -8.747,-4.134 -8.747,-9.263c0,-5.026 3.882,-9.111 8.597,-9.198l8.398,0l0,12.215l-0.015,0Zm7.989,-19.95l0,-0.001l-17.121,0l0,0.047c-8.791,0.475 -15.773,7.832 -15.773,16.887c0,9.362 7.459,16.933 16.67,16.933c3.062,0 5.862,-0.834 8.248,-2.282l0,2.282l7.975,0l0,-33.866l-0.001,-0Z" style="fill:#fff;fill-rule:nonzero;"/><path id="path62" d="M57.865,110.767c-0.034,7.623 -11.624,7.622 -11.657,-0c0.034,-7.622 11.624,-7.622 11.657,0" style="fill:#fff;fill-rule:nonzero;"/><path id="path64" d="M166.356,85.207c0,-1.103 0.892,-1.997 1.995,-1.997l3.573,0l0,33.273l-3.573,0c-1.103,0 -1.995,-0.892 -1.995,-1.995l0,-12.262l-7.155,0c-1.102,0 -1.995,-0.892 -1.995,-1.995l0,-3.574l9.15,0l0,-11.451Zm-12.542,29.281c0,1.103 -0.893,1.995 -1.996,1.995l-3.573,0l0,-33.273l3.573,0c1.103,0 1.996,0.894 1.996,1.997l0,29.281Z" style="fill:#fff;fill-rule:nonzero;"/><path id="path66" d="M50.846,69.021c-9.622,0 -17.494,-8.267 -17.494,-18.477c0,-10.21 7.872,-18.477 17.494,-18.477c5.352,0 10.167,2.56 13.37,6.56l5.555,-5.555c-4.655,-5.314 -11.396,-8.674 -18.925,-8.674c-14.046,0 -25.418,11.704 -25.418,26.147c0,14.443 11.372,26.147 25.418,26.147c5.977,0 11.457,-2.119 15.793,-5.656c-1.763,-2.005 -3.063,-4.439 -3.729,-7.132c-3.139,3.166 -7.396,5.118 -12.064,5.118" style="fill:#fff;fill-rule:nonzero;"/></g></svg>