<?xml version="1.0" encoding="UTF-8" standalone="no"?>
<!-- Created with Inkscape (http://www.inkscape.org/) -->

<svg
   width="156.22899mm"
   height="119.60753mm"
   viewBox="0 0 156.22899 119.60753"
   version="1.1"
   id="svg1"
   xmlns="http://www.w3.org/2000/svg"
   xmlns:svg="http://www.w3.org/2000/svg">
  <defs
     id="defs1">
    <clipPath
       clipPathUnits="userSpaceOnUse"
       id="clipPath3">
      <path
         d="M 0,841.89 H 1190.551 V 0 H 0 Z"
         transform="translate(-538.78492,-832.81092)"
         id="path3" />
    </clipPath>
    <clipPath
       clipPathUnits="userSpaceOnUse"
       id="clipPath5">
      <path
         d="M 0,841.89 H 1190.551 V 0 H 0 Z"
         transform="translate(-585.76391,-517.50421)"
         id="path5" />
    </clipPath>
    <clipPath
       clipPathUnits="userSpaceOnUse"
       id="clipPath7">
      <path
         d="M 0,841.89 H 1190.551 V 0 H 0 Z"
         transform="translate(-502.94422,-426.47641)"
         id="path7" />
    </clipPath>
    <clipPath
       clipPathUnits="userSpaceOnUse"
       id="clipPath9">
      <path
         d="M 0,841.89 H 1190.551 V 0 H 0 Z"
         transform="translate(-364.01721,-479.58061)"
         id="path9" />
    </clipPath>
    <clipPath
       clipPathUnits="userSpaceOnUse"
       id="clipPath11">
      <path
         d="M 0,841.89 H 1190.551 V 0 H 0 Z"
         transform="translate(-727.82822,-633.46282)"
         id="path11" />
    </clipPath>
    <clipPath
       clipPathUnits="userSpaceOnUse"
       id="clipPath13">
      <path
         d="M 0,841.89 H 1190.551 V 0 H 0 Z"
         transform="translate(-495.95241,-636.22132)"
         id="path13" />
    </clipPath>
    <clipPath
       clipPathUnits="userSpaceOnUse"
       id="clipPath15">
      <path
         d="M 0,841.89 H 1190.551 V 0 H 0 Z"
         transform="translate(-419.03511,-611.39662)"
         id="path15" />
    </clipPath>
    <clipPath
       clipPathUnits="userSpaceOnUse"
       id="clipPath17">
      <path
         d="M 0,841.89 H 1190.551 V 0 H 0 Z"
         transform="translate(-290.56201,-427.41071)"
         id="path17" />
    </clipPath>
    <clipPath
       clipPathUnits="userSpaceOnUse"
       id="clipPath19">
      <path
         d="M 0,841.89 H 1190.551 V 0 H 0 Z"
         transform="translate(-706.48092,-525.39721)"
         id="path19" />
    </clipPath>
    <clipPath
       clipPathUnits="userSpaceOnUse"
       id="clipPath21">
      <path
         d="M 0,841.89 H 1190.551 V 0 H 0 Z"
         transform="translate(-263.65401,-587.44792)"
         id="path21" />
    </clipPath>
  </defs>
  <g
     id="layer1"
     transform="translate(-34.803767,-27.917368)">
    <path
       id="path2"
       d="m 0,0 c 5.532,5.8 13.213,9.079 21.255,9.079 h 101.088 l -451.902,-480.478 c -5.559,-5.954 -13.348,-9.349 -21.494,-9.349 h -99.706 z"
       style="fill:#ffffff;fill-opacity:1;fill-rule:nonzero;stroke:none"
       transform="matrix(0.24418322,0,0,-0.24418322,144.87155,30.134308)"
       clip-path="url(#clipPath3)" />
    <path
       id="path4"
       d="m 0,0 c -25.037,0 -45.408,-20.371 -45.408,-45.408 0,-25.038 20.367,-45.409 45.404,-45.409 6.299,0 12.672,1.347 18.434,3.907 l 2.13,0.939 c 3.655,1.621 7.938,0.156 9.833,-3.358 l 6.419,-11.901 -5.229,-2.818 C 21.93,-109.263 11.008,-112.01 0,-112.01 c -36.726,0 -66.602,29.875 -66.602,66.602 0,36.719 29.876,66.602 66.602,66.602 11.008,0 21.93,-2.756 31.587,-7.97 L 36.812,10.405 30.369,-1.542 C 28.404,-5.182 23.918,-6.6 20.215,-4.752 13.873,-1.589 6.863,0 0,0"
       style="fill:#1d1d1b;fill-opacity:1;fill-rule:nonzero;stroke:none"
       transform="matrix(0.24418322,0,0,-0.24418322,156.34304,107.12691)"
       clip-path="url(#clipPath5)" />
    <path
       id="path6"
       d="m 0,0 c 4.224,0 7.653,-3.422 7.653,-7.649 v -13.333 h -76.287 c -4.224,0 -7.649,3.429 -7.649,7.656 V 0 Z m 1.829,41.697 c 0,-4.227 -3.43,-7.657 -7.653,-7.657 h -70.463 v 13.333 c 0,4.228 3.426,7.649 7.653,7.649 H 1.829 Z m -78.116,57.427 c 0,4.228 3.426,7.657 7.653,7.657 H 7.649 V 93.448 c 0,-4.221 -3.425,-7.65 -7.653,-7.65 h -76.283 z"
       style="fill:#1d1d1b;fill-opacity:1;fill-rule:nonzero;stroke:none"
       transform="matrix(0.24418322,0,0,-0.24418322,136.11986,129.35438)"
       clip-path="url(#clipPath7)" />
    <path
       id="path8"
       d="M 0,0 C 0,4.219 3.426,7.649 7.653,7.649 H 21.119 V -66.43 c 0,-4.228 -3.429,-7.656 -7.653,-7.656 H 0 Z m 51.954,39.991 c 0,-4.228 -3.426,-7.65 -7.653,-7.65 h -75.136 v 13.467 c 0,4.228 3.426,7.656 7.649,7.656 h 75.14 z"
       style="fill:#1d1d1b;fill-opacity:1;fill-rule:nonzero;stroke:none"
       transform="matrix(0.24418322,0,0,-0.24418322,102.19621,116.38722)"
       clip-path="url(#clipPath9)" />
    <path
       id="path10"
       d="M 0,0 V -75.416 H -30.574 V 1.337 c 0,12.982 -10.852,23.484 -24.265,23.484 h -12.226 c -13.418,0 -24.459,-10.502 -24.459,-23.484 v -76.753 h -30.373 V 0 c 0,29.975 25.246,54.415 56.207,54.415 h 9.471 C -25.247,54.415 0,29.975 0,0"
       style="fill:#1d1d1b;fill-opacity:1;fill-rule:nonzero;stroke:none"
       transform="matrix(0.24418322,0,0,-0.24418322,191.03275,78.811768)"
       clip-path="url(#clipPath11)" />
    <path
       id="path12"
       d="M 0,0 C 5.026,12.921 17.116,22.063 31.04,22.063 45.095,22.063 57.002,12.895 61.993,0 Z m 31.04,51.657 c -35.309,0 -63.906,-29.022 -63.906,-64.917 0,-35.893 28.597,-64.915 63.906,-64.915 0.385,0 0.76,-0.007 1.145,-0.001 v 0.001 h 61.038 v 29.449 H 32.185 v 0.03 c -0.385,-0.013 -0.756,-0.011 -1.145,-0.011 -14.789,0 -27.516,10.245 -31.897,24.543 H 94.399 C 97.584,-0.336 90.202,51.657 31.04,51.657"
       style="fill:#1d1d1b;fill-opacity:1;fill-rule:nonzero;stroke:none"
       transform="matrix(0.24418322,0,0,-0.24418322,134.41258,78.138193)"
       clip-path="url(#clipPath13)" />
    <path
       id="path14"
       d="m 0,0 c -4.538,-13.923 -16.871,-23.946 -31.566,-23.946 -18.342,0 -33.535,15.847 -33.535,35.511 0,19.267 14.882,34.928 32.96,35.263 h 18.369 11.583 2.245 L 0.056,0 Z m 30.629,76.481 v 0.003 h -65.635 v -0.18 c -33.7,-1.822 -60.468,-30.025 -60.468,-64.739 0,-35.892 28.597,-64.915 63.908,-64.915 11.738,0 22.473,3.197 31.622,8.747 v -8.747 h 30.575 v 42.005 22.91 34.367 30.549 z"
       style="fill:#1d1d1b;fill-opacity:1;fill-rule:nonzero;stroke:none"
       transform="matrix(0.24418322,0,0,-0.24418322,115.63066,84.199967)"
       clip-path="url(#clipPath15)" />
    <path
       id="path16"
       d="M 0,0 C -0.131,-29.223 -44.564,-29.221 -44.691,0.001 -44.56,29.223 -0.127,29.221 0,0"
       style="fill:#1d1d1b;fill-opacity:1;fill-rule:nonzero;stroke:none"
       transform="matrix(0.24418322,0,0,-0.24418322,84.259682,129.12624)"
       clip-path="url(#clipPath17)" />
    <path
       id="path18"
       d="M 0,0 C 0,4.228 3.42,7.656 7.648,7.656 H 21.347 V -119.903 H 7.648 c -4.228,0 -7.648,3.421 -7.648,7.648 v 47.008 h -27.43 c -4.224,0 -7.648,3.421 -7.648,7.648 v 13.7 H 0 Z m -48.082,-112.255 c 0,-4.227 -3.425,-7.648 -7.652,-7.648 H -69.433 V 7.656 h 13.699 c 4.227,0 7.652,-3.428 7.652,-7.656 z"
       style="fill:#010101;fill-opacity:1;fill-rule:nonzero;stroke:none"
       transform="matrix(0.24418322,0,0,-0.24418322,185.8201,105.19958)"
       clip-path="url(#clipPath19)" />
    <path
       id="path20"
       d="m 0,0 c -36.888,0 -67.065,31.694 -67.065,70.834 0,39.142 30.177,70.836 67.065,70.836 20.518,0 38.976,-9.815 51.256,-25.148 l 21.297,21.297 C 54.706,158.193 28.865,171.074 0,171.074 c -53.849,0 -97.445,-44.871 -97.445,-100.24 0,-55.371 43.596,-100.239 97.445,-100.239 22.915,0 43.924,8.124 60.546,21.685 C 53.787,-0.033 48.803,9.298 46.25,19.62 34.217,7.481 17.898,0 0,0"
       style="fill:#1d1d1b;fill-opacity:1;fill-rule:nonzero;stroke:none"
       transform="matrix(0.24418322,0,0,-0.24418322,77.6892,90.047839)"
       clip-path="url(#clipPath21)" />
  </g>
</svg>
