<?xml version="1.0" encoding="UTF-8" standalone="no"?><!DOCTYPE svg PUBLIC "-//W3C//DTD SVG 1.1//EN" "http://www.w3.org/Graphics/SVG/1.1/DTD/svg11.dtd"><svg width="100%" height="100%" viewBox="0 0 295 226" version="1.1" xmlns="http://www.w3.org/2000/svg" xmlns:xlink="http://www.w3.org/1999/xlink" xml:space="preserve" xmlns:serif="http://www.serif.com/" style="fill-rule:evenodd;clip-rule:evenodd;stroke-linejoin:round;stroke-miterlimit:2;"><path d="M207.709,4.184c2.549,-2.673 6.089,-4.184 9.794,-4.184l46.582,0l-208.236,221.404c-2.562,2.744 -6.151,4.308 -9.905,4.308l-45.944,0l207.709,-221.528Z" style="fill:#fd0;fill-rule:nonzero;"/><path d="M229.357,149.477c-11.537,0 -20.924,9.387 -20.924,20.924c0,11.537 9.385,20.924 20.922,20.924c2.903,0 5.839,-0.62 8.495,-1.8l0.981,-0.433c1.684,-0.747 3.658,-0.072 4.531,1.548l2.958,5.483l-2.41,1.299c-4.448,2.403 -9.48,3.669 -14.553,3.669c-16.923,0 -30.69,-13.767 -30.69,-30.69c0,-16.92 13.767,-30.69 30.69,-30.69c5.073,0 10.105,1.27 14.555,3.672l2.408,1.299l-2.969,5.505c-0.905,1.678 -2.973,2.331 -4.679,1.48c-2.922,-1.458 -6.153,-2.19 -9.315,-2.19" style="fill:#fff;fill-rule:nonzero;"/><path d="M191.194,191.422c1.946,0 3.526,1.577 3.526,3.525l0,6.144l-35.152,0c-1.947,0 -3.525,-1.58 -3.525,-3.528l0,-6.141l35.151,0Zm0.843,-19.214c0,1.948 -1.581,3.528 -3.527,3.528l-32.469,0l0,-6.143c0,-1.949 1.579,-3.525 3.527,-3.525l32.469,0l0,6.14Zm-35.996,-26.462c0,-1.948 1.579,-3.528 3.527,-3.528l35.151,0l0,6.143c0,1.945 -1.579,3.525 -3.527,3.525l-35.151,0l0,-6.14Z" style="fill:#fff;fill-rule:nonzero;"/><path d="M127.176,166.952c0,-1.944 1.579,-3.525 3.527,-3.525l6.205,0l0,34.136c0,1.948 -1.58,3.528 -3.527,3.528l-6.205,0l0,-34.139Zm23.94,-18.428c0,1.949 -1.578,3.525 -3.526,3.525l-34.623,0l0,-6.205c0,-1.948 1.579,-3.528 3.525,-3.528l34.624,0l0,6.208Z" style="fill:#fff;fill-rule:nonzero;"/><path d="M294.82,96.043l0,34.752l-14.089,0l0,-35.368c0,-5.982 -5,-10.822 -11.181,-10.822l-5.634,0c-6.182,0 -11.27,4.84 -11.27,10.822l0,35.368l-13.996,0l0,-34.752c0,-13.813 11.633,-25.074 25.9,-25.074l4.364,0c14.272,0 25.906,11.261 25.906,25.074" style="fill:#fff;fill-rule:nonzero;"/><path d="M187.972,94.772c2.316,-5.954 7.887,-10.166 14.303,-10.166c6.477,0 11.964,4.224 14.263,10.166l-28.566,0Zm14.303,-23.803c-16.27,0 -29.448,13.373 -29.448,29.913c0,16.539 13.178,29.913 29.448,29.913c0.178,0 0.35,0.003 0.528,0l28.126,0l0,-13.57l-28.126,0l0,-0.014c-0.178,0.006 -0.349,0.005 -0.528,0.005c-6.815,0 -12.679,-4.721 -14.698,-11.309l43.894,0c1.467,-10.98 -1.934,-34.938 -29.196,-34.938" style="fill:#fff;fill-rule:nonzero;"/><path d="M152.528,106.211c-2.091,6.416 -7.774,11.034 -14.545,11.034c-8.453,0 -15.453,-7.302 -15.453,-16.363c0,-8.878 6.857,-16.095 15.188,-16.249l14.836,0l0,21.578l-0.026,0Zm14.114,-35.242l0,-0.002l-30.245,0l0,0.083c-15.529,0.84 -27.863,13.836 -27.863,29.832c0,16.539 13.177,29.913 29.449,29.913c5.408,0 10.355,-1.473 14.571,-4.031l0,4.031l14.089,0l0,-59.826l-0.001,0Z" style="fill:#fff;fill-rule:nonzero;"/><path d="M93.328,190.992c-0.06,13.466 -20.535,13.465 -20.594,-0.001c0.061,-13.465 20.535,-13.464 20.594,0.001" style="fill:#fff;fill-rule:nonzero;"/><path d="M284.983,145.84c0,-1.948 1.576,-3.528 3.524,-3.528l6.313,0l0,58.779l-6.313,0c-1.948,0 -3.524,-1.576 -3.524,-3.524l0,-21.661l-12.64,0c-1.946,0 -3.524,-1.577 -3.524,-3.525l0,-6.312l16.164,0l0,-20.229Zm-22.156,51.727c0,1.948 -1.578,3.524 -3.526,3.524l-6.313,0l0,-58.779l6.313,0c1.948,0 3.526,1.58 3.526,3.528l0,51.727Z" style="fill:#fff;fill-rule:nonzero;"/><path d="M80.929,117.247c-16.998,0 -30.903,-14.605 -30.903,-32.64c0,-18.037 13.905,-32.641 30.903,-32.641c9.454,0 17.96,4.522 23.619,11.588l9.814,-9.814c-8.224,-9.388 -20.132,-15.324 -33.433,-15.324c-24.814,0 -44.902,20.677 -44.902,46.191c0,25.515 20.088,46.19 44.902,46.19c10.559,0 20.24,-3.744 27.9,-9.993c-3.115,-3.542 -5.412,-7.842 -6.588,-12.598c-5.545,5.594 -13.065,9.041 -21.312,9.041" style="fill:#fff;fill-rule:nonzero;"/></svg>