<?xml version="1.0" encoding="UTF-8"?>
<svg id="Calque_1" data-name="Calque 1" xmlns="http://www.w3.org/2000/svg" viewBox="0 0 252.54 188.88">
  <g>
    <g>
      <polygon points="55.69 67.41 55.69 67.41 55.69 13.33 63.93 13.33 63.93 60.88 86.52 60.88 86.52 67.41 55.69 67.41"/>
      <polygon points="72.81 53.99 72.81 53.99 72.81 0 103.89 0 101.2 6.44 80.98 6.44 80.98 23.19 101.03 23.19 101.03 29.57 80.98 29.57 80.98 47.55 104.05 47.55 104.05 53.99 72.81 53.99"/>
      <path d="M29.44,129.02h-5.22L0,74.73h8.81l14.93,34.21c1.14,2.9,2.36,5.87,3.5,8.77h.16c1.07-2.75,2.21-5.58,3.67-8.7l16.06-34.28h8.49l-26.18,54.28Z"/>
      <polygon points="60.91 74.73 60.91 74.73 69.06 74.73 69.06 128.8 60.91 128.8 60.91 74.73"/>
      <path d="M188.83,128.75h0c-18,0-29.88-11.13-29.88-26.62,0-16.41,12.85-27.83,31.88-27.83,7.47,0,13.57,1.71,17.03,3.06l-.09,7.28c-4.01-1.86-9.96-4-16.7-4-15.43,0-23.37,8.71-23.37,20.63,0,12.85,8.83,21.13,23.12,21.13,5.06,0,8.6-.86,10.77-1.93v-18.63h8.1v22.49c-4.01,1.93-11.72,4.42-20.88,4.42Z"/>
      <polygon points="218.38 128.8 218.38 128.8 218.38 74.73 249.45 74.73 246.75 81.25 226.62 81.25 226.62 97.92 246.59 97.92 246.59 104.38 226.62 104.38 226.62 122.28 249.61 122.28 249.61 128.8 218.38 128.8"/>
      <path d="M136.5,74.59h-5.22l-14.19,32.4h7.59l6.69-15.01c1.05-2.61,1.79-4.72,2.36-6.67h.09c.49,1.81,1.22,4.06,2.36,6.73l6.69,16.39h-38.81v-47.55h-8.24v54.07h18.1l-3.17,7.32h-24.22v-47.55h-8.24v54.07h37.75l5.63-13.85h23.73l6.03,13.85h8.81l-23.73-54.22Z"/>
    </g>
    <g>
      <g>
        <path d="M203.46,158.23h0c-.49,0-.73.14-.98.22v3.26c.25.14.49.14.82.14,1.07,0,1.88-.87,1.88-1.95,0-.87-.65-1.67-1.72-1.67ZM203.05,162.86h0c-.9,0-1.55-.21-1.97-.36v-7.83h1.39v2.75c.33-.14.74-.22,1.23-.22,1.47,0,2.77.87,2.77,2.61,0,1.88-1.55,3.04-3.42,3.04Z"/>
        <path d="M211.28,163.01h0c-.89,2.11-1.87,2.4-2.85,2.4-.58,0-.98-.08-1.39-.22l.33-.94c.33.14.58.21.98.21.65,0,1.23-.43,1.72-1.74l-2.77-5.36h1.47l1.96,3.99,1.54-3.99h1.3l-2.28,5.65Z"/>
      </g>
      <g>
        <path d="M224.55,157.27c-1.08.33-2.1.81-3.13,1.36-1.01.53-2.14,1.24-3.14,2-.71.55-1.51,1.25-2.17,2.02-.31.37-.56.61-.86,1.1-.25.4-.47.69-.77,1.18-.15.25-.33.72-.48,1.09-.3.74-.49,1.53-.5,2.58-.01.95.09,1.65.38,2.53.27.84.68,1.7,1.23,2.42.36.47.76.98,1.28,1.44.82.71,1.88,1.27,3.09,1.61.93.26,1.89.44,3.18.45,1.36.01,2.33,0,3.66-.21,1.5-.22,3.01-.59,4.49-1.06,1.74-.56,3.41-1.2,5.15-1.99,2.48-1.13,4.98-2.35,7.45-3.72,1.5-.83,2.99-1.64,4.56-2.59,1.45-.88,3.04-1.7,4.49-2.72v-4.37c-.78.3-1.45.76-2.24,1.19-.68.36-1.48.79-2.25,1.23-.66.38-1.44.83-2.25,1.24-.33.17-.66.38-1.12.61-.34.17-1.19.57-1.19.57l-4.38,2.42s-2.05,1.07-3.09,1.56c-.93.44-1.82.88-2.88,1.28-.92.34-2,.74-3.07,1.13-.25.09-.6.16-.89.28-.13.05-.28.06-.46.14-.07.04-.34.09-.49.13-.65.18-1.23.32-2.05.48-1.96.39-4.7.65-6.92.22-.53-.1-1.29-.3-1.84-.67-.37-.26-.69-.62-.86-1.13-.1-.3-.1-.75-.08-.87.05-.25.11-.48.18-.71.1-.33.23-.66.44-.98.25-.39.42-.75.78-1.16.31-.36.54-.64.91-1.04.66-.72,1.41-1.42,2.3-2.07.9-.66,2.01-1.37,3.19-1.95.43-.21.86-.39,1.41-.61.41-.16.92-.35,1.54-.52.93-.26,2.24-.62,3.61-.46,0-.7-.32-1.58-.6-2.42-.23-.7-.59-1.24-1.36-1.51-.32-.11-.62-.16-1.11-.13-1.14.06-2.15.34-3.13.64Z"/>
        <path d="M248.2,157.27c-.64.34-1.37.69-2.08,1.1-.28.16-.68.36-1.06.53-.3.14-.66.36-1.12.49-.28.08-.57.19-1.05.24-.22.02.02.56.11.87.15.52.36,1.05.72,1.52.29.37.88.77,1.62.43,3.21-1.48,7.33-3.96,6.28-3.33.28-.17.91-.33.91-.74,0-2.12.02-3.38.02-3.38,0,0-1.62.79-4.34,2.25Z"/>
        <path d="M239.04,167.66l4.3-2.38-3.59-8.25h-5.5c-1.27,2.31-2.51,4.62-3.84,7.09-.61,1.14-1.24,2.32-1.89,3.54-.29.55-.61,1.14-.95,1.77-.27.52-.7,1.15-.95,1.83.31.16.75.06,1.18-.03,1.13-.24,2.48-.58,3.66-1.05.54-.22,1.18-.49,1.57-1.06.72-1.05,1.25-2.52,1.85-3.76.27-.55.59-1.25.91-1.88.28-.55.59-1.43.94-1.77l2.31,5.96Z"/>
        <path d="M240.69,172.31l1.55,4.02c.11.19.3.34.48.46.4.25.97.29,1.64.27.63-.02,1.28,0,2.01,0h1.01c.2,0,.53-.02.53-.02h.43s-3.1-7.16-3.1-7.16c-.52.29-1.04.58-1.56.86-.99.55-1.98,1.07-2.98,1.58Z"/>
        <rect x="213.25" y="179.11" width="37.53" height="3.28"/>
      </g>
    </g>
    <g>
      <path d="M8.63,150.61c-5.09,0-8.17-3.62-8.17-8.45s3.46-8.71,8.61-8.71c1.94,0,3.44.46,4.3.97l-.02,2.24c-1.27-.79-2.5-1.25-4.3-1.25-3.79,0-6.14,2.93-6.14,6.59s2.27,6.57,6.03,6.57c1.45,0,2.83-.43,4-1.07l.66,1.76c-1.65.94-3.33,1.35-4.96,1.35"/>
      <path d="M17.72,144.29c0,2.67,1.27,4.46,3.39,4.46s3.34-1.81,3.34-4.46-1.22-4.43-3.39-4.43-3.34,1.78-3.34,4.43M25.1,139.63c1.07,1.12,1.66,2.75,1.66,4.69s-.61,3.59-1.71,4.71c-.99,1.02-2.37,1.58-4,1.58s-2.9-.51-3.9-1.48c-1.12-1.12-1.73-2.83-1.73-4.79s.61-3.59,1.71-4.74c.99-1.02,2.34-1.6,3.95-1.6s3.03.59,4.02,1.63"/>
      <path d="M31.92,144.29c0,2.67,1.27,4.46,3.39,4.46s3.34-1.81,3.34-4.46-1.22-4.43-3.39-4.43-3.34,1.78-3.34,4.43M39.31,139.63c1.07,1.12,1.66,2.75,1.66,4.69s-.61,3.59-1.71,4.71c-.99,1.02-2.37,1.58-4,1.58s-2.9-.51-3.9-1.48c-1.12-1.12-1.73-2.83-1.73-4.79s.61-3.59,1.71-4.74c.99-1.02,2.34-1.6,3.95-1.6s3.03.59,4.02,1.63"/>
      <path d="M48.55,139.96c-.79,0-1.35.13-1.86.28v8.07c.61.25,1.1.41,1.83.41,2.39,0,3.92-1.7,3.92-4.48,0-2.95-1.78-4.28-3.9-4.28M48.62,150.61c-.81,0-1.4-.15-1.94-.36v6.14h-2.24v-17.57c.94-.33,2.37-.81,4.18-.81,3.87,0,6.14,2.37,6.14,6.16,0,4.07-2.93,6.44-6.14,6.44"/>
      <path d="M63.65,136.83h-1.96l2.24-3.74h2.88l-3.16,3.74ZM62.73,139.84c-1.68,0-2.73,1.48-2.73,3.21h5.35c0-1.55-.87-3.21-2.62-3.21M60.03,144.8c0,2.14,1.38,3.9,3.79,3.9,1.04,0,2.11-.36,2.93-.84l.64,1.5c-1.05.79-2.6,1.25-4,1.25-3.92,0-5.73-3.08-5.73-6.44s2.01-6.16,5.09-6.16,4.99,2.47,4.99,6.21v.59h-7.71Z"/>
      <path d="M77.29,140.5c-.33-.18-.76-.28-1.25-.28-.71,0-1.76.54-2.52,1.32v8.81h-2.27v-12.04h1.88l.28,1.35c1.5-1.38,2.44-1.66,3.39-1.66.56,0,1.07.2,1.38.41l-.89,2.09Z"/>
      <path d="M84.77,139.84c-1.68,0-2.73,1.48-2.73,3.21h5.35c0-1.55-.87-3.21-2.62-3.21M82.07,144.8c0,2.14,1.38,3.9,3.79,3.9,1.04,0,2.11-.36,2.93-.84l.64,1.5c-1.04.79-2.6,1.25-4,1.25-3.92,0-5.73-3.08-5.73-6.44s2.01-6.16,5.09-6.16,4.99,2.47,4.99,6.21v.59h-7.71Z"/>
      <path d="M99.33,140.5c-.33-.18-.76-.28-1.25-.28-.71,0-1.76.54-2.52,1.32v8.81h-2.27v-12.04h1.88l.28,1.35c1.5-1.38,2.44-1.66,3.39-1.66.56,0,1.07.2,1.38.41l-.89,2.09Z"/>
      <path d="M113.95,139.96c-.79,0-1.35.13-1.86.28v8.07c.61.25,1.1.41,1.83.41,2.39,0,3.92-1.7,3.92-4.48,0-2.95-1.78-4.28-3.9-4.28M114.02,150.61c-.81,0-1.4-.15-1.94-.36v6.14h-2.24v-17.57c.94-.33,2.37-.81,4.18-.81,3.87,0,6.14,2.37,6.14,6.16,0,4.07-2.93,6.44-6.14,6.44"/>
      <path d="M125.35,144.29c0,2.67,1.27,4.46,3.39,4.46s3.34-1.81,3.34-4.46-1.22-4.43-3.39-4.43-3.34,1.78-3.34,4.43M132.74,139.63c1.07,1.12,1.66,2.75,1.66,4.69s-.61,3.59-1.71,4.71c-.99,1.02-2.37,1.58-4,1.58s-2.9-.51-3.9-1.48c-1.12-1.12-1.73-2.83-1.73-4.79s.61-3.59,1.71-4.74c.99-1.02,2.34-1.6,3.95-1.6s3.03.59,4.02,1.63"/>
      <path d="M146,150.35l-.48-1.22c-.89.76-2.24,1.48-3.85,1.48s-3.79-.84-3.79-4.38v-7.92h2.27v7.74c0,1.83.79,2.67,2.27,2.67,1.35,0,2.42-.81,2.93-1.4v-9.01h2.24v7.56c0,3.16.08,3.95.25,4.48h-1.83Z"/>
      <path d="M157.94,140.5c-.33-.18-.76-.28-1.25-.28-.71,0-1.76.54-2.52,1.32v8.81h-2.27v-12.04h1.88l.28,1.35c1.5-1.38,2.44-1.66,3.39-1.66.56,0,1.07.2,1.38.41l-.89,2.09Z"/>
      <path d="M168.78,138.31h2.24v12.04h-2.24v-12.04ZM171.41,134.52c0,.81-.69,1.5-1.5,1.5s-1.5-.66-1.5-1.5c0-.79.66-1.48,1.5-1.48s1.5.66,1.5,1.48"/>
      <path d="M183.25,150.35v-7.31c0-1.4-.23-2.98-1.99-2.98-1.32,0-2.57.87-3.51,1.68v8.61h-2.24v-12.04h1.88l.28,1.38c1.38-1.02,2.6-1.68,4.28-1.68s3.56,1.2,3.56,4.28v8.07h-2.27Z"/>
      <path d="M197.32,150.35v-7.31c0-1.4-.23-2.98-1.99-2.98-1.32,0-2.57.87-3.51,1.68v8.61h-2.24v-12.04h1.88l.28,1.38c1.38-1.02,2.6-1.68,4.28-1.68s3.57,1.2,3.57,4.28v8.07h-2.27Z"/>
      <path d="M205.34,144.29c0,2.67,1.27,4.46,3.39,4.46s3.34-1.81,3.34-4.46-1.22-4.43-3.39-4.43-3.34,1.78-3.34,4.43M212.73,139.63c1.07,1.12,1.66,2.75,1.66,4.69s-.61,3.59-1.71,4.71c-.99,1.02-2.37,1.58-4,1.58s-2.9-.51-3.9-1.48c-1.12-1.12-1.73-2.83-1.73-4.79s.61-3.59,1.71-4.74c.99-1.02,2.34-1.6,3.95-1.6s3.03.59,4.02,1.63"/>
      <polygon points="222.38 150.43 220.67 150.43 215.96 138.31 218.28 138.31 221.56 147.48 221.61 147.48 225.2 138.31 227.39 138.31 222.38 150.43"/>
      <path d="M234.21,139.84c-1.68,0-2.73,1.48-2.73,3.21h5.35c0-1.55-.87-3.21-2.62-3.21M231.51,144.8c0,2.14,1.38,3.9,3.79,3.9,1.04,0,2.11-.36,2.93-.84l.64,1.5c-1.04.79-2.6,1.25-4,1.25-3.92,0-5.73-3.08-5.73-6.44s2.01-6.16,5.09-6.16,4.99,2.47,4.99,6.21v.59h-7.71Z"/>
      <path d="M248.77,140.5c-.33-.18-.76-.28-1.25-.28-.71,0-1.76.54-2.52,1.32v8.81h-2.27v-12.04h1.88l.28,1.35c1.5-1.38,2.44-1.66,3.39-1.66.56,0,1.07.2,1.38.41l-.89,2.09Z"/>
    </g>
  </g>
  <g>
    <path d="M214.31,186.45v2.37h-.71v-3.32h.71l2.04,2.37v-2.37h.71v3.32h-.71l-2.04-2.37Z"/>
    <path d="M217.94,187.16c0-.94.87-1.72,2.1-1.72s2.1.78,2.1,1.72-.87,1.72-2.1,1.72-2.1-.78-2.1-1.72ZM218.68,187.16c0,.67.56,1.2,1.36,1.2s1.36-.53,1.36-1.2-.56-1.2-1.36-1.2-1.36.53-1.36,1.2Z"/>
    <path d="M223.02,185.5h1.8c.84,0,1.52.34,1.52,1.07,0,.57-.42.87-.98,1l1.09,1.26h-.83l-.99-1.16h-.89v1.16h-.71v-3.32ZM224.77,187.15c.5,0,.83-.21.83-.57s-.31-.55-.83-.55h-1.03v1.12h1.04Z"/>
    <path d="M230.54,185.5h.76v3.32h-.71v-2.48l-1.32,1.86-1.28-1.8v2.42h-.62v-3.32h.76l1.21,1.69,1.21-1.69Z"/>
    <path d="M234.95,188.02h-1.83l-.4.8h-.73l1.72-3.32h.73l1.72,3.32h-.82l-.4-.8ZM234.69,187.5l-.66-1.32-.66,1.32h1.31Z"/>
    <path d="M237.57,186.45v2.37h-.71v-3.32h.71l2.04,2.37v-2.37h.71v3.32h-.71l-2.04-2.37Z"/>
    <path d="M241.41,185.5h1.5c1.28,0,2.14.66,2.14,1.66s-.86,1.66-2.14,1.66h-1.5v-3.32ZM242.96,188.29c.81,0,1.35-.45,1.35-1.13s-.54-1.13-1.35-1.13h-.84v2.26h.84Z"/>
    <path d="M245.92,185.5h.71v3.32h-.71v-3.32Z"/>
    <path d="M247.71,187.86v-2.37h3.01v.53h-2.3v.8h2.11v.52h-2.11v.51c0,.29.14.43.42.43h1.95v.53h-2.12c-.61,0-.96-.36-.96-.96Z"/>
  </g>
</svg>