<svg xmlns="http://www.w3.org/2000/svg" xmlns:xlink="http://www.w3.org/1999/xlink" width="80" height="53" viewBox="0 0 80 53"><defs><path id="bilia" d="M662.291 183.793c-.818-2.13-2.425-3.865-4.642-5.182a8.445 8.445 0 0 0-1.035-2.548c-5.002-8.119-23.121-6.041-40.467 4.646-.695.41-1.37.863-2.045 1.305-19.681 8.389-32.43 22.18-28.79 31.587 3.812 9.845 24.131 11.15 45.4 2.92 21.268-8.228 35.387-22.887 31.58-32.728z"/><path id="bilib" d="M604.425 222.62c-10.397 0-17.587-3.198-19.76-8.773-1.856-4.794.201-10.794 5.784-16.896 5.424-5.927 13.706-11.452 23.314-15.542a91.705 91.705 0 0 1 2.004-1.285c10.012-6.164 20.573-9.701 28.974-9.701 6.016 0 10.323 1.828 12.454 5.284.467.762.82 1.59 1.047 2.454 2.274 1.415 3.853 3.223 4.687 5.378 1.947 5.027-.376 11.314-6.544 17.702-6.033 6.254-15.072 11.906-25.44 15.923-9.088 3.517-18.508 5.456-26.528 5.456z"/><path id="bilic" d="M600.76 193.123c5.604-6.696 15.28-12.406 15.28-12.406s8.377-5.464 18.169-7.963c9.865-2.515 12.34.139 12.34.139s4.785 14.945 4.83 15.035c.045.09-7.636 22.213-7.636 22.213s-9.85 5.935-20.798 8.941c-10.95 3.006-18.815 3.027-22.696 2.573-3.882-.454-1.035-13.497-1.035-13.497z"/><path id="bilid" d="M597.075 196.067l6.417-8.548a84.309 84.309 0 0 1 28.25-10.826l-36.119 30.148z"/><path id="bilie" d="M604.969 219.467c-5.207-.152-9.223-1.784-11.186-4.998-3.273-5.375 0-13.82 7.587-21.98.266-1.874 1.178-3.6 2.478-5.215-13.591 8.16-21.448 18.663-18.507 26.283 1.938 5.026 8.18 7.824 16.687 8.261a30.153 30.153 0 0 0 2.94-2.351z"/><path id="bilif" d="M622.977 215.687a54.81 54.81 0 0 1-12.22 3.424 34.061 34.061 0 0 1-3.363 2.703 72.711 72.711 0 0 0 16.025-2.863 94.183 94.183 0 0 1-.442-3.264z"/><path id="bilig" d="M636.826 208.362a77.515 77.515 0 0 1-8.094 4.72c-.168 1.677-.372 3.158-.605 4.364.853-.3 1.71-.615 2.568-.945a86.22 86.22 0 0 0 6.491-2.805 115.763 115.763 0 0 1-.36-5.334z"/><path id="bilih" d="M662.291 183.85c-.818-2.163-2.454-3.91-4.736-5.24 1.595 6.615-3.967 16.21-13.96 24.664 0 2.499-.098 4.908-.245 7.125 13.878-8.197 21.931-18.843 18.941-26.549z"/><path id="bilii" d="M627.44 177.597a72.5 72.5 0 0 1 10.433-1.808v-.147l3.98-2.38v2.281c6.475-.167 11.964.872 15.718 3.068a8.442 8.442 0 0 0-1.006-2.446c-3.886-6.372-15.816-6.544-29.134-1.227z"/><path id="bilij" d="M623.46 176.672a77.104 77.104 0 0 0-7.268 3.914c-.736.45-1.452.908-2.16 1.375l.11.094a63.011 63.011 0 0 1 2.81-1.145 88.688 88.688 0 0 1 6.504-2.225z"/><path id="bilik" d="M605.267 201.883c-3.272-3.533-4.29-6.626-3.893-9.407-7.591 8.16-10.868 16.602-7.587 21.98 1.963 3.22 5.98 4.847 11.186 4.998 6.483-5.95 5.673-11.763.294-17.57z"/><path id="bilil" d="M657.571 178.62c-3.754-2.197-9.243-3.236-15.718-3.068v4.703l-3.98 2.38v-6.83a72.505 72.505 0 0 0-10.433 1.808v2.642l-3.98 2.38v-3.934a88.662 88.662 0 0 0-6.503 2.225c-.953.368-1.886.752-2.81 1.145l1.276 1.096c-6.544 3.73-10.442 8.373-2.81 16.307 6.303 6.544 4.708 13.604-1.84 19.633a54.813 54.813 0 0 0 12.204-3.411c-1.071-9.273-.924-22.308.483-28.63l3.98-2.381c2 7.959 2.086 20.376 1.288 28.389a78.463 78.463 0 0 0 5.436-3.023 57.24 57.24 0 0 0 2.658-1.697c-.355-7.923 0-16.528 1.051-21.293l3.98-2.38c1.288 5.133 1.783 12.118 1.759 18.58 9.992-8.441 15.554-18.036 13.96-24.642z"/><path id="bilim" d="M603.766 187.413a18.066 18.066 0 0 1 3.424-3.223 42.875 42.875 0 0 1 5.558-3.432l2.601 2.352s-2.176.233-4.736 2.564a17.411 17.411 0 0 1-5.358 3.301z"/></defs><g><g transform="translate(-584 -170)"><g><use fill="#fff" xlink:href="#bilia"/></g><g><use fill="#fff" xlink:href="#bilib"/></g><g><use fill="#fff" xlink:href="#bilia"/></g><g><use fill="#fff" xlink:href="#bilic"/></g><g><use fill="#fff" xlink:href="#bilid"/></g><g><use fill="#0059a3" xlink:href="#bilie"/></g><g><use fill="#0059a3" xlink:href="#bilif"/></g><g><use fill="#0059a3" xlink:href="#bilig"/></g><g><use fill="#0059a3" xlink:href="#bilih"/></g><g><use fill="#bcd5f0" xlink:href="#bilii"/></g><g><use fill="#bcd5f0" xlink:href="#bilij"/></g><g><use fill="#8ab5e1" xlink:href="#bilik"/></g><g><use fill="#8ab5e1" xlink:href="#bilil"/></g><g><use fill="#fff" xlink:href="#bilim"/></g></g></g></svg>