<?xml version="1.0" encoding="UTF-8"?><svg id="Layer_1" xmlns="http://www.w3.org/2000/svg" viewBox="0 0 205.91 124.97"><defs><style>.cls-1{fill:red;stroke-width:0px;}</style></defs><path class="cls-1" d="m138.3,35.34c0,19.52-15.82,35.34-35.34,35.34s-35.34-15.82-35.34-35.34S83.44,0,102.96,0s35.34,15.82,35.34,35.34Zm-27.59,3.31c1.14,5.43-3.22,12.05-7.57,16.9,13.75-.15,24.94-11.34,24.94-25.12s-11.25-25.12-25.12-25.12-25.12,11.25-25.12,25.12,11.2,24.97,24.94,25.12c-4.35-4.85-8.71-11.48-7.57-16.9.93-5.51,5.02-7.32,7.75-7.27,2.73-.05,6.82,1.76,7.75,7.27Z"/><path class="cls-1" d="m97.97,124.97c-5.33,0-10.43-1.34-13.6-3.62-4.04-2.84-6.27-8.2-6.27-15.02,0-12.84,6.27-19.03,19.28-19.03s19.28,6.25,19.28,19.31c0,12.06-6.39,18.37-18.69,18.37Zm-.53-31.42c-7.09,0-10.14,3.79-10.14,12.5-.06,8.71,3.17,12.67,10.2,12.67s10.02-3.96,10.02-12.72-3.17-12.45-10.08-12.45Z"/><path class="cls-1" d="m141.34,117.69c-5.11,0-6.78-.32-8.18-1.48-1.34-1.17-1.69-1.96-1.85-5.56v-18.54c-.02-1.89-1.59-3.41-3.56-3.45h-4.72v19.87c0,6.2.61,8.95,2.73,11.39,2.4,2.8,5.96,4.08,11.58,4.08h11.12v-6.31h-7.12Z"/><path class="cls-1" d="m190.56,88.66h-5.59c-2.16.05-4,1.3-4.82,3.09l-14.01,32.25h5.67c2.21-.02,4.1-1.3,4.92-3.12l2.21-5.09h14.13l2.23,5.14c.83,1.8,2.7,3.06,4.9,3.07h5.73l-15.35-35.34Zm-9.85,20.87l5.28-12.39,5.28,12.39h-10.57Z"/><path class="cls-1" d="m157.21,88.66c-1.95.04-3.52,1.55-3.56,3.41v31.93h4.61c1.96-.02,3.55-1.53,3.59-3.39v-31.95h-4.64Z"/><path class="cls-1" d="m33.3,88.66c-2.17.04-4.02,1.3-4.83,3.09l-8.67,21.76-9.27-21.72c-.81-1.82-2.68-3.1-4.87-3.13H0l15.63,35.34h4.5c2.12-.04,3.94-1.25,4.77-2.99l14.63-32.35h-6.23Z"/><path class="cls-1" d="m41.63,106.62c0,3.48.8,12.84,9.28,16.32,1.94.76,4.09,1.06,7.18,1.06h14.02v-6.31s-10.71,0-10.78,0c-5.15-.07-7.97-1.12-9.34-3.92-.53-1.09-.85-2.43-1-4.08v-.31h20.24v-6.09h-20.24v-.31c.15-1.66.47-3,1-4.08,1.37-2.8,4.19-3.85,9.34-3.92h10.78v-6.31h-14.02c-3.09,0-5.24.31-7.18,1.06-8.48,3.47-9.28,12.84-9.28,16.32v.58Z"/></svg>